<svg xmlns="http://www.w3.org/2000/svg" width="273.82" height="17.52" viewBox="0 0 273.82 17.52">
  <path id="パス_18" data-name="パス 18" d="M-129.55-12.5c0-.3.08-.64-.12-.84a1.357,1.357,0,0,0-.86-.42c-.38,0-.38.24-.78.24-.38,0-.38-.12-.78-.12-.38,0-.38.16-.78.16s-.4-.1-.78-.1c-.4,0-.4.08-.78.08-.4,0-.4-.2-.8-.2-.38,0-.32.02-.78.02-.24,0-.5.18-.78.18s-.54-.06-.78-.06c-.46,0-.4.02-.8.02a1.059,1.059,0,0,0-.78.26,1.059,1.059,0,0,0-.26.78,1.042,1.042,0,0,0,.28.78c.2.2.46.5.76.5.46,0,.46-.24.92-.24s.46.22.92.22.66-.54,1-.24c.3.26-.12.5-.12.88,0,.4.12.4.12.78,0,.4-.16.4-.16.78a2.731,2.731,0,0,1,.14.8c0,.38-.06.38-.06.78,0,.38.02.38.02.78,0,.38-.02.38-.02.78s-.08.4-.08.78c0,.4-.08.4-.08.78,0,.4.14.4.14.8,0,.38.16.38.16.78,0,.3-.04.6.16.8a1.313,1.313,0,0,0,.8.46c.3,0,.54-.32.74-.52a.942.942,0,0,0,.22-.74v-.78c0-.4.04-.4.04-.78,0-.4.24-.4.24-.78,0-.4-.12-.4-.12-.78,0-.4-.08-.4-.08-.8,0-.38.18-.38.18-.78,0-.38-.16-.38-.16-.78s.18-.4.18-.78c0-.4-.18-.4-.18-.78,0-.4-.04-.4-.04-.8,0-.38-.12-.44.14-.72s.32,0,.66,0c.36,0,.36-.18.72-.18s.36.16.72.16.36-.12.72-.12a.937.937,0,0,0,.72-.32A.9.9,0,0,0-129.55-12.5Zm13.12,9.84a1.8,1.8,0,0,1-.18-.82c0-.24.1-.52.1-.82v-.82c0-.26-.16-.54-.16-.82a4.164,4.164,0,0,0-.1-.72,4.171,4.171,0,0,0-.14-.72,4.189,4.189,0,0,0-.26-.7,3.419,3.419,0,0,0-.34-.66,4.857,4.857,0,0,0-.6-.52,4.735,4.735,0,0,0-.66-.44,3.5,3.5,0,0,0-.8-.08c-.26-.04-.5-.24-.78-.24a4.834,4.834,0,0,0-.92.26,5.652,5.652,0,0,0-1.04.26c-.16-.32.02-.4.02-.76s.12-.36.12-.72c0-.34-.16-.34-.16-.7s.18-.36.18-.72a1.236,1.236,0,0,0-.3-.84,1.221,1.221,0,0,0-.84-.28,1.236,1.236,0,0,0-.84.3,1.122,1.122,0,0,0-.18.82c0,.42-.14.42-.14.82s.06.4.06.8c0,.42-.14.42-.14.82s.26.32.26.8c0,.24-.14.52-.14.82,0,.26-.04.52-.04.8s-.02.54-.02.82-.02.54-.02.82c0,.26.12.54.12.8,0,.3.04.56.04.82,0,.3-.14.58-.14.82,0,.48.12.4.12.8,0,.3-.02.68.18.88a1.393,1.393,0,0,0,.88.36,1.285,1.285,0,0,0,.8-.44,1.259,1.259,0,0,0,.42-.8c0-.4.02-.4.02-.82,0-.4-.04-.4-.04-.82,0-.4-.24-.4-.24-.82,0-.4.22-.4.22-.82,0-.04-.14-.08-.14-.14a2.3,2.3,0,0,1,.04-.66c.08-.22.42-.26.56-.4a1.186,1.186,0,0,1,.58-.42,2.739,2.739,0,0,1,.72-.02c.26,0,.48-.12.64-.06a1.462,1.462,0,0,1,.52.38,1.733,1.733,0,0,1,.44.6c.04.2-.16.46-.16.72,0,.28.12.56.12.82,0,.28-.12.56-.12.82,0,.3.12.58.12.82a4.908,4.908,0,0,0,.06.82.931.931,0,0,0,.36.7c.2.2.38.52.7.52a1.212,1.212,0,0,0,.78-.42A1.18,1.18,0,0,0-116.43-2.66Zm11.9-3.42c.02.34.16.44-.02.72a1.081,1.081,0,0,0-1.04.3c-.42.4-.6.22-1,.6a1.391,1.391,0,0,1-.5.34c-.2.08-.36.32-.58.32-.2,0-.38-.18-.58-.28a1.073,1.073,0,0,1-.52-.3,1.331,1.331,0,0,1-.3-1.02,2.493,2.493,0,0,1-.04-.66,2.264,2.264,0,0,1,.26-.64c.16-.18.54-.14.74-.28a3.407,3.407,0,0,1,.56-.42,5.9,5.9,0,0,1,.66-.28,3.447,3.447,0,0,1,.72-.18s0,.12.02.12a1.62,1.62,0,0,1,.98.3c.2.16.5.22.56.72A3.5,3.5,0,0,1-104.53-6.08Zm2.3,2.46c-.02-.4-.18-.4-.2-.8s0-.4-.02-.8c-.02-.42.18-.42.16-.84-.02-.4-.2-.38-.22-.78,0-.04-.02-.04-.02-.06a3.652,3.652,0,0,0-.22-.66c-.06-.24.04-.52-.08-.72-.1-.22-.32-.36-.46-.54-.16-.18-.22-.5-.4-.62a3.432,3.432,0,0,0-.8-.34,4.07,4.07,0,0,0-.86-.04,5.827,5.827,0,0,0-.8-.1,5.229,5.229,0,0,0-.8.04,5.557,5.557,0,0,0-.76.24c-.24.08-.56-.02-.8.1s-.5.22-.74.36c-.22.16-.32.46-.52.64s-.5.24-.68.46c-.16.18-.14.48-.26.7-.12.2-.34.34-.42.58a3.775,3.775,0,0,0-.18.68,4.347,4.347,0,0,0,.04.72c0,.24-.2.48-.16.72s.34.4.42.62,0,.52.14.72a4.037,4.037,0,0,0,.48.54,4.344,4.344,0,0,0,.58.48,6.186,6.186,0,0,0,.62.46,3.445,3.445,0,0,0,.78.08,3.067,3.067,0,0,0,.74-.04c.26,0,.52.26.76.22a4.627,4.627,0,0,0,.7-.36,3.471,3.471,0,0,0,.72-.26c.2-.12.32-.38.5-.56.22-.2.16-.4.46-.36.24.02.06.2.06.44a1.077,1.077,0,0,0,.28.76,1.235,1.235,0,0,0,.8.4c.02,0,.02-.18.04-.18a.922.922,0,0,0,.72-.34,1.078,1.078,0,0,0,.38-.76l-.14.02C-102.41-3.2-102.21-3.22-102.23-3.62ZM-87.81-6.1c0-.28-.22-.54-.28-.8a3.512,3.512,0,0,0-.12-.8,5.07,5.07,0,0,0-.4-.72,3.341,3.341,0,0,0-.62-.56,3.979,3.979,0,0,0-.7-.4,3.837,3.837,0,0,0-.7-.46,3.862,3.862,0,0,0-.8-.3,6.176,6.176,0,0,0-.86.02,3.5,3.5,0,0,0-.8.1,4.461,4.461,0,0,0-.78.26,3.733,3.733,0,0,0-.7.32,2.271,2.271,0,0,0-.3-.46,3.049,3.049,0,0,0-.44-.44,1,1,0,0,0-.74-.24.97.97,0,0,0-.78.24,1.19,1.19,0,0,0-.4.8,1.217,1.217,0,0,0,.42.78,1.241,1.241,0,0,1,.34.52,5.255,5.255,0,0,1,.16.6c.04.26.02.52.04.7,0,.08-.12.14-.12.18-.02.16.14.36.14.52,0,.44-.2.44-.2.86v1.7c0,.42.18.42.18.84a.98.98,0,0,0,.32.74,1.149,1.149,0,0,0,.74.44,1.187,1.187,0,0,0,.78-.4c.2-.2.18-.46.18-.78,0-.42.22-.42.22-.84s.02-.42.02-.86c0-.42-.24-.42-.24-.84s.16-.42.16-.86c0-.22-.1-.48,0-.68.08-.18.38-.24.56-.4.16-.16.28-.46.5-.54a1.846,1.846,0,0,1,.74-.02,2.882,2.882,0,0,1,.76.12,1.875,1.875,0,0,1,.64.42,1.483,1.483,0,0,1,.44.56,1.631,1.631,0,0,1,.24.68c0,.28-.04.56-.04.82v.82c0,.3.14.58.14.82,0,.5.06.42.06.82,0,.32-.04.64.16.84a1.169,1.169,0,0,0,.84.24,1.288,1.288,0,0,0,.88-.2,1.283,1.283,0,0,0,.26-.88h.06c0-.4-.12-.32-.12-.82,0-.24.16-.52.16-.82,0-.26-.18-.54-.18-.82C-87.99-5.54-87.81-5.82-87.81-6.1Zm13.22,3.18c-.06-.28-.12-.66-.36-.82-.2-.14-.58-.08-.8-.26-.18-.16-.28-.46-.46-.66-.18-.18-.24-.46-.42-.68q-.24-.27-.48-.6c-.16-.2-.36-.28-.5-.5.22-.3.26-.22.56-.42.32-.2.22-.34.52-.54.32-.2.42,0,.74-.2.3-.2.26-.26.56-.46.26-.16.3-.44.38-.7a1.059,1.059,0,0,0-.02-.82,1.047,1.047,0,0,0-.7-.46,1.122,1.122,0,0,0-.88.06c-.32.2-.26.3-.6.52-.34.2-.44.06-.78.28-.32.2-.18.44-.52.64-.34.22-.4.12-.74.32-.34.22-.38.16-.7.38-.34.2-.38.78-.72.58-.36-.22-.04-.52-.04-.94s.24-.42.24-.84-.02-.42-.02-.82c0-.42-.28-.42-.28-.84s.3-.42.3-.84v-.82c0-.32-.3-.56-.5-.76a1.031,1.031,0,0,0-.74-.34.992.992,0,0,0-.72.38.9.9,0,0,0-.26.72c0,.4-.2.4-.2.8s.1.4.1.82c0,.4.1.4.1.8s-.14.4-.14.82c0,.4.14.4.14.8s-.14.4-.14.82c0,.4.1.4.1.8s-.22.4-.22.82c0,.4.06.4.06.8,0,.42-.02.42-.02.82s.08.4.08.82c0,.4-.14.4-.14.8a1.367,1.367,0,0,0,.38.88,1.333,1.333,0,0,0,.88.34c.3,0,.54-.26.74-.46s.52-.44.52-.76c0-.34-.1-.34-.1-.7s.1-.36.1-.72-.18-.36-.16-.7c.02-.02.16.1.18.06.4-.24.24-.58.7-.7.14.22.24.58.4.8s.46.32.62.52c.18.22.22.54.4.72a5.045,5.045,0,0,0,.6.54,7.305,7.305,0,0,0,.6.54c.22.18.42.34.62.48a1.088,1.088,0,0,0,.66.12,1.121,1.121,0,0,0,.94-.38A1.19,1.19,0,0,0-74.59-2.92Zm26.68-5.56c-.1-.26-.48-.34-.76-.46-.28-.14-.52-.32-.8-.24a1.279,1.279,0,0,0-.68.58c-.18.36.02.44-.16.8-.16.34-.3.28-.48.62-.16.36-.02.42-.18.78-.18.34-.22.28-.42.66-.1.22-.4.4-.5.62-.2.38.14.86-.18.64-.36-.24-.38-.2-.6-.56-.22-.34-.1-.42-.32-.78-.2-.34-.1-.42-.32-.76-.2-.36-.34-.28-.56-.64s-.22-.34-.44-.7-.3-.3-.52-.66a.931.931,0,0,0-.62-.44c-.26-.06-.58-.24-.84-.08a1.2,1.2,0,0,0-.56.74,1.3,1.3,0,0,0,.22.88c.2.34.16.36.38.7.2.34.12.38.32.74.22.34.4.22.6.56.22.34.22.34.42.68.22.34.02.46.24.8.2.34.24.32.44.66.22.36.28.3.5.64.2.36.34.28.32.68-.02.56-.18.5-.44,1,0,.04.14.12.14.14a1.608,1.608,0,0,1-.66.7,2.1,2.1,0,0,1-.92.18c-.08,0-.16.08-.24.08-.3-.04-.68-.14-.9.04a1.247,1.247,0,0,0-.36.84,1.248,1.248,0,0,0,.22.9c.18.22.54.22.86.24a2.944,2.944,0,0,0,.42,0c.02,0,.06.06.08.06a4.37,4.37,0,0,0,.86-.1,4.271,4.271,0,0,0,.88-.16,4.392,4.392,0,0,0,.68-.56,3.615,3.615,0,0,0,.56-.66c.16-.24.46-.42.58-.68.16-.38.1-.42.28-.8.18-.36,0-.46.18-.84.2-.36.4-.26.58-.64s.22-.36.4-.74-.06-.5.12-.86c.2-.38.4-.28.58-.66s.04-.44.24-.82c.18-.38.24-.34.42-.72s.12-.42.32-.78c.18-.38.36-.3.54-.68A1.394,1.394,0,0,0-47.91-8.48Zm11.92,2.72a2.682,2.682,0,0,1-.28,1.24,2.913,2.913,0,0,1-.6.44,4,4,0,0,1-.68.2,3.653,3.653,0,0,1-.7.06,5.061,5.061,0,0,1-.76.02c-.28-.04-.44-.28-.62-.38-.2-.14-.54-.12-.68-.36a2.362,2.362,0,0,1-.16-.62,2.132,2.132,0,0,1-.12-.6,1.875,1.875,0,0,1,.16-.72,2.86,2.86,0,0,1,.34-.64c.16-.18.52-.22.86-.34.3-.12.58-.44.88-.44.24,0,.44.24.64.28.22.04.48-.04.68.08a2.536,2.536,0,0,1,.52.44c.14.1.16.38.24.66C-36.21-6.24-35.99-6.02-35.99-5.76Zm2.26,0c0-.28-.26-.52-.3-.8a5.259,5.259,0,0,0-.12-.78,3.528,3.528,0,0,0-.34-.74,3.6,3.6,0,0,0-.52-.6,4.05,4.05,0,0,0-.6-.42c-.22-.14-.34-.4-.56-.5a3.341,3.341,0,0,0-.76-.12c-.24-.06-.46-.18-.7-.22-.26-.02-.5,0-.74,0v.02a4.68,4.68,0,0,0-.76-.06,5.231,5.231,0,0,0-.76.18c-.24.08-.4.34-.62.46-.24.12-.56.06-.76.22a3.707,3.707,0,0,0-.56.56,4.516,4.516,0,0,0-.5.58c-.12.22-.02.54-.12.78-.08.24-.36.42-.4.66a3.4,3.4,0,0,0,.04.78,3.867,3.867,0,0,0,.12.82,5.934,5.934,0,0,0,.16.82,3.96,3.96,0,0,0,.48.7,3.39,3.39,0,0,0,.58.62c.2.2.34.5.58.64a5.158,5.158,0,0,0,.84.26c.26.08.5.34.78.4a6.546,6.546,0,0,0,.9.08c.04,0,.08-.22.12-.22a5.229,5.229,0,0,0,.8-.04,8.024,8.024,0,0,0,.82-.12,4.493,4.493,0,0,0,.76-.38,4.141,4.141,0,0,0,.7-.44c.22-.18.28-.5.44-.7.18-.24.48-.4.58-.68.12-.28,0-.62.04-.9C-34.05-5.2-33.73-5.46-33.73-5.76Zm14.14,3.5c.14-.26,0-.54-.08-.82a1.031,1.031,0,0,0-.46-.62c-.1-.04-.2-.36-.34-.62a1.841,1.841,0,0,1-.3-.68,1.17,1.17,0,0,0-.04-.26c.02-.14-.16-.26-.16-.4,0-.42.06-.42.06-.84s-.04-.42-.04-.84.2-.42.2-.84.08-.42.08-.84a1.333,1.333,0,0,0-.44-.82,1.127,1.127,0,0,0-.82-.26,1.008,1.008,0,0,0-.72.36c-.2.2-.46.42-.46.72,0,.42-.04.42-.04.84s.24.42.24.84-.28.42-.28.84.26.42.26.84a1.9,1.9,0,0,1-.18.68,2.219,2.219,0,0,1-.26.7c-.18.16-.52.1-.78.18a1.706,1.706,0,0,1-.7.26,1.649,1.649,0,0,1-.66-.06,1.527,1.527,0,0,1-.56-.4,2.115,2.115,0,0,1-.3-.74c-.06-.22.1-.48.1-.76s-.08-.56-.08-.82c0-.28-.08-.56-.08-.82,0-.3.02-.58.02-.82a4.908,4.908,0,0,1,.06-.82,1.169,1.169,0,0,0-.38-.8,1.078,1.078,0,0,0-.8-.26.925.925,0,0,0-.68.36.973.973,0,0,0-.4.7c0,.4.08.32.08.82,0,.24-.2.52-.2.82v.82c0,.26.16.54.16.82,0,.26-.16.52-.12.78.04.24.26.46.32.7a5.329,5.329,0,0,0,.2.76,3.465,3.465,0,0,0,.44.62,3.251,3.251,0,0,0,.54.62,5.128,5.128,0,0,0,.7.44,5,5,0,0,0,.82.14,3.356,3.356,0,0,0,.78.14c.02,0,.02-.12.04-.12.24,0,.52.18.76.16.24-.04.42-.36.66-.44a4.658,4.658,0,0,0,.66-.28c.2-.12.46-.06.64-.22.14.18.34.16.52.3.16.14.24.44.44.56a1.332,1.332,0,0,0,.56.04,1.3,1.3,0,0,0,.56-.26C-19.89-1.98-19.69-2.06-19.59-2.26Zm25.94-9.6c.02-.28-.3-.5-.5-.74a3.553,3.553,0,0,0-.6-.62,3.061,3.061,0,0,0-.82-.28,4.457,4.457,0,0,0-.86-.2,3.5,3.5,0,0,0-.8.1c-.26.04-.46.28-.68.38a3.465,3.465,0,0,0-.62.44,3.447,3.447,0,0,0-.54.54,3.7,3.7,0,0,0-.5.74,4.515,4.515,0,0,0-.38.84,4.957,4.957,0,0,0-.02.94c0,.04.04.08,0,.08a3.718,3.718,0,0,1-.66.08.979.979,0,0,0-.74.28,1.172,1.172,0,0,0-.46.76,1.212,1.212,0,0,0,.42.78,1.028,1.028,0,0,0,.78.2c.32,0,.48-.14.68.1.26.32-.04.42-.04.82s-.12.4-.12.8.06.4.06.8.2.4.2.78c0,.4-.18.4-.18.8s.16.4.16.8a1.012,1.012,0,0,0,.22.78,1.123,1.123,0,0,0,.78.34,1.185,1.185,0,0,0,.82-.3,1.151,1.151,0,0,0,.3-.82c0-.4.06-.4.06-.78v-.8c0-.4-.12-.4-.12-.8s.18-.4.18-.8-.22-.4-.22-.8-.12-.44.18-.68c.36-.32.4-.12.86-.12.48,0,.48.12.96.12a1.374,1.374,0,0,0,.88-.34,1.414,1.414,0,0,0,.38-.88c0-.32-.36-.5-.56-.7a.966.966,0,0,0-.7-.36c-.48,0-.48-.18-.96-.18a7.146,7.146,0,0,1-.94.08c-.04-.02.12,0,.12-.04a2.964,2.964,0,0,1,.06-.62c.08-.26.04-.5.14-.64a1.169,1.169,0,0,1,1-.46.961.961,0,0,1,.7.32,1.17,1.17,0,0,0,.8.3,1.4,1.4,0,0,0,.9-.16A1.354,1.354,0,0,0,6.35-11.86Zm11.88,6.1a2.682,2.682,0,0,1-.28,1.24,2.913,2.913,0,0,1-.6.44,4,4,0,0,1-.68.2,3.653,3.653,0,0,1-.7.06,5.061,5.061,0,0,1-.76.02c-.28-.04-.44-.28-.62-.38-.2-.14-.54-.12-.68-.36a2.363,2.363,0,0,1-.16-.62,2.132,2.132,0,0,1-.12-.6,1.875,1.875,0,0,1,.16-.72,2.86,2.86,0,0,1,.34-.64c.16-.18.52-.22.86-.34.3-.12.58-.44.88-.44.24,0,.44.24.64.28.22.04.48-.04.68.08a2.536,2.536,0,0,1,.52.44c.14.1.16.38.24.66C18.01-6.24,18.23-6.02,18.23-5.76Zm2.26,0c0-.28-.26-.52-.3-.8a5.259,5.259,0,0,0-.12-.78,3.528,3.528,0,0,0-.34-.74,3.6,3.6,0,0,0-.52-.6,4.05,4.05,0,0,0-.6-.42c-.22-.14-.34-.4-.56-.5a3.341,3.341,0,0,0-.76-.12c-.24-.06-.46-.18-.7-.22-.26-.02-.5,0-.74,0v.02a4.68,4.68,0,0,0-.76-.06,5.231,5.231,0,0,0-.76.18c-.24.08-.4.34-.62.46-.24.12-.56.06-.76.22a3.706,3.706,0,0,0-.56.56,4.516,4.516,0,0,0-.5.58c-.12.22-.02.54-.12.78-.08.24-.36.42-.4.66a3.4,3.4,0,0,0,.04.78,3.867,3.867,0,0,0,.12.82,5.933,5.933,0,0,0,.16.82,3.96,3.96,0,0,0,.48.7,3.39,3.39,0,0,0,.58.62c.2.2.34.5.58.64a5.157,5.157,0,0,0,.84.26c.26.08.5.34.78.4a6.546,6.546,0,0,0,.9.08c.04,0,.08-.22.12-.22a5.229,5.229,0,0,0,.8-.04,8.023,8.023,0,0,0,.82-.12,4.493,4.493,0,0,0,.76-.38,4.141,4.141,0,0,0,.7-.44c.22-.18.28-.5.44-.7.18-.24.48-.4.58-.68.12-.28,0-.62.04-.9C20.17-5.2,20.49-5.46,20.49-5.76Zm11-2.94a1.321,1.321,0,0,0-.34-.86,1.316,1.316,0,0,0-.86-.38v.06a3.642,3.642,0,0,0-.9.2,3.843,3.843,0,0,0-.86.34,4.768,4.768,0,0,0-.66.62c-.16-.16-.04-.22-.04-.44a1.214,1.214,0,0,0-.22-.86,1.316,1.316,0,0,0-.86-.38c-.3,0-.54.28-.74.48a.916.916,0,0,0-.26.76c0,.38-.2.38-.2.78s.08.4.08.8-.1.4-.1.8.16.4.16.8.02.4.02.8-.22.4-.22.8.08.4.08.8.08.4.08.8a1.209,1.209,0,0,0,.26.84,1.18,1.18,0,0,0,.84.2,1.009,1.009,0,0,0,.76-.3.953.953,0,0,0,.24-.74c0-.36.2-.36.2-.72s-.24-.36-.24-.72.2-.36.2-.7c0,0-.12,0-.12-.02-.02-.22.18-.42.24-.64a2.363,2.363,0,0,1,.32-.58,1.96,1.96,0,0,1,.36-.54,2.411,2.411,0,0,1,.7-.58c.3-.16.56-.46.88-.46s.64.08.84-.12A1.289,1.289,0,0,0,31.49-8.7ZM60.33-4.48a1.037,1.037,0,0,0-.32-.72c-.24-.2-.46-.44-.74-.44a1.293,1.293,0,0,0-.88.36,5.757,5.757,0,0,1-.56.66,3.61,3.61,0,0,1-.74.48,4.064,4.064,0,0,1-.88.12c-.28.04-.54.26-.84.26a2.832,2.832,0,0,1-.4-.08,3.935,3.935,0,0,1-.7-.12c-.24-.04-.52.04-.72-.04-.24-.08-.32-.42-.52-.56a2.83,2.83,0,0,1-.58-.36,2.714,2.714,0,0,1-.44-.78,2.492,2.492,0,0,1-.3-.82,4.04,4.04,0,0,1-.2-.88c0-.02-.04-.06-.04-.1.02-.3.22-.56.26-.84a5.215,5.215,0,0,1,.16-.84,3.726,3.726,0,0,1,.34-.82,3.078,3.078,0,0,1,.56-.68c.22-.18.58-.16.84-.28a3.125,3.125,0,0,1,.78-.38,6.085,6.085,0,0,1,.88.06,5.88,5.88,0,0,1,.84,0,3.233,3.233,0,0,1,.74.38c.24.1.6.06.82.24.2.18.26.52.46.74a1.326,1.326,0,0,0,.84.4c.3.02.48-.3.7-.52.24-.2.46-.36.46-.64a1.078,1.078,0,0,0-.26-.8l-.02.02a6.63,6.63,0,0,0-.52-.54c-.18-.16-.46-.2-.66-.36-.2-.14-.32-.4-.54-.5a7.292,7.292,0,0,0-.7-.28,4.164,4.164,0,0,0-.72-.1,4.213,4.213,0,0,0-.72-.18c-.24-.02-.48-.2-.72-.2-.38,0-.78.04-1.18.08a5.238,5.238,0,0,0-.8.22c-.28.08-.46.34-.72.46a4.735,4.735,0,0,0-.72.34c-.24.16-.58.18-.78.38s-.2.56-.38.78a8.242,8.242,0,0,0-.56.62c-.12.24-.12.56-.22.82-.1.24-.24.48-.32.74-.06.28-.08.54-.12.82s-.3.54-.3.82c0,.02.18.08.18.14a6.176,6.176,0,0,0,.02.86,5.807,5.807,0,0,0,.32.82c.08.28-.1.66,0,.92.12.28.5.4.66.64a3.984,3.984,0,0,0,.44.76c.16.18.44.26.62.42a6.309,6.309,0,0,0,.58.44,3.924,3.924,0,0,0,.64.34c.24.1.44.24.68.32.24.06.46.28.7.32s.5.08.76.1c.18.02.38-.08.58-.08v-.04a4.656,4.656,0,0,0,.76-.08,4.932,4.932,0,0,0,.78-.06,4.345,4.345,0,0,0,.72-.24c.26-.08.44-.3.66-.4a7.083,7.083,0,0,0,.66-.38c.22-.14.54-.16.72-.32.2-.18.22-.52.38-.7A.878.878,0,0,0,60.33-4.48ZM72.21-5.76a2.682,2.682,0,0,1-.28,1.24,2.913,2.913,0,0,1-.6.44,4,4,0,0,1-.68.2,3.653,3.653,0,0,1-.7.06,5.061,5.061,0,0,1-.76.02c-.28-.04-.44-.28-.62-.38-.2-.14-.54-.12-.68-.36a2.363,2.363,0,0,1-.16-.62,2.132,2.132,0,0,1-.12-.6,1.875,1.875,0,0,1,.16-.72,2.86,2.86,0,0,1,.34-.64c.16-.18.52-.22.86-.34.3-.12.58-.44.88-.44.24,0,.44.24.64.28.22.04.48-.04.68.08a2.536,2.536,0,0,1,.52.44c.14.1.16.38.24.66C71.99-6.24,72.21-6.02,72.21-5.76Zm2.26,0c0-.28-.26-.52-.3-.8a5.257,5.257,0,0,0-.12-.78,3.528,3.528,0,0,0-.34-.74,3.605,3.605,0,0,0-.52-.6,4.05,4.05,0,0,0-.6-.42c-.22-.14-.34-.4-.56-.5a3.34,3.34,0,0,0-.76-.12c-.24-.06-.46-.18-.7-.22-.26-.02-.5,0-.74,0v.02a4.68,4.68,0,0,0-.76-.06,5.231,5.231,0,0,0-.76.18c-.24.08-.4.34-.62.46-.24.12-.56.06-.76.22a3.706,3.706,0,0,0-.56.56,4.516,4.516,0,0,0-.5.58c-.12.22-.02.54-.12.78-.08.24-.36.42-.4.66a3.4,3.4,0,0,0,.04.78,3.867,3.867,0,0,0,.12.82,5.933,5.933,0,0,0,.16.82,3.961,3.961,0,0,0,.48.7,3.39,3.39,0,0,0,.58.62c.2.2.34.5.58.64a5.157,5.157,0,0,0,.84.26c.26.08.5.34.78.4a6.546,6.546,0,0,0,.9.08c.04,0,.08-.22.12-.22a5.229,5.229,0,0,0,.8-.04,8.023,8.023,0,0,0,.82-.12,4.494,4.494,0,0,0,.76-.38,4.141,4.141,0,0,0,.7-.44c.22-.18.28-.5.44-.7.18-.24.48-.4.58-.68.12-.28,0-.62.04-.9C74.15-5.2,74.47-5.46,74.47-5.76Zm17.12,2.2c0-.22-.18-.5-.18-.82,0-.26.18-.52.18-.82,0-.26-.18-.54-.18-.82a4.421,4.421,0,0,0,.08-.7c-.02-.24-.24-.44-.28-.66-.08-.24.02-.52-.08-.74-.1-.2-.34-.34-.48-.54-.14-.18-.14-.52-.32-.68a2.577,2.577,0,0,0-.66-.34,2.936,2.936,0,0,0-.68-.3,3.175,3.175,0,0,0-.74.04,2.974,2.974,0,0,0-.84-.02,3.061,3.061,0,0,0-.82.28c-.24.12-.42.5-.62.68-.18-.18-.36-.52-.58-.66a3.093,3.093,0,0,0-.72-.38,2.879,2.879,0,0,0-.82-.1c-.32,0-.6.32-.9.4a3.371,3.371,0,0,0-.9.28,3.183,3.183,0,0,0-.6-.82,1.117,1.117,0,0,0-.76-.38,1.262,1.262,0,0,0-.86.34,1.434,1.434,0,0,0-.36.86c0,.28.32.48.54.7a1.415,1.415,0,0,1,.32.58c.08.18-.04.44,0,.64.04.26.04.52.06.68,0,.04.18.08.18.12a5.306,5.306,0,0,0-.12.6v.84c0,.42-.16.42-.16.84,0,.44.06.44.06.86s.14.42.14.84a.891.891,0,0,0,.36.68.925.925,0,0,0,.68.36.968.968,0,0,0,.72-.32.937.937,0,0,0,.32-.72c0-.42.16-.42.16-.84s-.22-.42-.22-.84c0-.44.06-.44.06-.86s.04-.42.04-.84c0-.08.08-.12.08-.2a1.057,1.057,0,0,0,.02-.26l.12.02c.06-.36.06-.62.2-.78a.919.919,0,0,1,.82-.44.775.775,0,0,1,.7.36,2.433,2.433,0,0,1,.3,1.12c0,.08.08.14.08.2,0,.08-.08.14-.08.22v.8c0,.28-.04.54-.04.8,0,.3.06.56.06.8,0,.48.04.4.04.78a1.208,1.208,0,0,0,.2.86c.2.2.54.16.86.16a1.037,1.037,0,0,0,.78-.22,1.288,1.288,0,0,0,.48-.8l-.28.02c0-.42.14-.34.14-.84,0-.24-.12-.5-.12-.82,0-.26.2-.52.2-.82,0-.26.04-.54.04-.82,0-.12-.28-.24-.28-.36a1.82,1.82,0,0,1,.52-.98.84.84,0,0,1,.8-.36c.32,0,.4.08.6.34.1.16.4.32.46.6a3.057,3.057,0,0,1,.08.76c0,.28-.2.56-.2.82,0,.3-.06.56-.06.82,0,.32.04.6.04.84,0,.48-.06.4-.06.82,0,.3.28.56.48.76a1.123,1.123,0,0,0,.78.34,1.1,1.1,0,0,0,.72-.4.925.925,0,0,0,.32-.7,1.949,1.949,0,0,0,.18-.84Zm7.46-2.5c0-.24-.04-.54-.04-.82,0-.3-.02-.6-.02-.84,0-.48-.04-.42-.04-.84,0-.3-.22-.48-.42-.68s-.38-.46-.68-.46a1.143,1.143,0,0,0-.78.36,1.059,1.059,0,0,0-.26.78c0,.42-.12.42-.12.84,0,.4.02.4.02.82s-.12.42-.12.84.16.42.16.84c0,.4-.06.36-.06.82,0,.28.12.58.12.84,0,.46-.18.42-.18.84,0,.3.3.5.5.72a.935.935,0,0,0,.72.28c.32,0,.62.02.82-.18s.14-.52.14-.82c0-.42.22-.42.22-.84s-.12-.42-.12-.82c0-.42-.04-.42-.04-.84S99.05-5.58,99.05-6.06Zm-.08-5.5a.925.925,0,0,0-.12-.76.9.9,0,0,0-.58-.46.868.868,0,0,0-.74.12.885.885,0,0,0-.52.58c-.08.3-.22.26-.3.56-.06.28.16.54.3.78s.28.48.56.56a1.23,1.23,0,0,0,.28-.02,1.038,1.038,0,0,0,.7-.14c.18-.14.18-.4.24-.64C98.87-11.28,98.89-11.28,98.97-11.56Zm14.5,5.46c0-.28-.22-.54-.28-.8a3.513,3.513,0,0,0-.12-.8,5.07,5.07,0,0,0-.4-.72,3.341,3.341,0,0,0-.62-.56,3.979,3.979,0,0,0-.7-.4,3.837,3.837,0,0,0-.7-.46,3.862,3.862,0,0,0-.8-.3,6.176,6.176,0,0,0-.86.02,3.5,3.5,0,0,0-.8.1,4.461,4.461,0,0,0-.78.26,3.733,3.733,0,0,0-.7.32,2.271,2.271,0,0,0-.3-.46,3.049,3.049,0,0,0-.44-.44,1,1,0,0,0-.74-.24.97.97,0,0,0-.78.24,1.19,1.19,0,0,0-.4.8,1.217,1.217,0,0,0,.42.78,1.241,1.241,0,0,1,.34.52,5.255,5.255,0,0,1,.16.6c.04.26.02.52.04.7,0,.08-.12.14-.12.18-.02.16.14.36.14.52,0,.44-.2.44-.2.86v1.7c0,.42.18.42.18.84a.98.98,0,0,0,.32.74,1.149,1.149,0,0,0,.74.44,1.187,1.187,0,0,0,.78-.4c.2-.2.18-.46.18-.78,0-.42.22-.42.22-.84s.02-.42.02-.86c0-.42-.24-.42-.24-.84s.16-.42.16-.86c0-.22-.1-.48,0-.68.08-.18.38-.24.56-.4.16-.16.28-.46.5-.54a1.846,1.846,0,0,1,.74-.02,2.882,2.882,0,0,1,.76.12,1.875,1.875,0,0,1,.64.42,1.483,1.483,0,0,1,.44.56,1.631,1.631,0,0,1,.24.68c0,.28-.04.56-.04.82v.82c0,.3.14.58.14.82,0,.5.06.42.06.82,0,.32-.04.64.16.84a1.169,1.169,0,0,0,.84.24,1.288,1.288,0,0,0,.88-.2,1.283,1.283,0,0,0,.26-.88h.06c0-.4-.12-.32-.12-.82,0-.24.16-.52.16-.82,0-.26-.18-.54-.18-.82C113.29-5.54,113.47-5.82,113.47-6.1Zm10.86.24c-.02.38-.18.36-.24.74-.1.06-.04.18-.14.28a1.855,1.855,0,0,1-.6.46,2.146,2.146,0,0,1-.76.2c-.24,0-.46-.26-.72-.36a1.929,1.929,0,0,1-.6-.42c-.18-.18-.42-.28-.52-.48-.1-.24.04-.5.04-.72,0-.26-.1-.5,0-.72.1-.2.36-.28.56-.44a2.151,2.151,0,0,1,.62-.38,2.715,2.715,0,0,1,.72-.18,3.076,3.076,0,0,1,.66.2c.22.06.52-.06.74.06.06.04-.04.22.02.24.04.38.2.38.2.76S124.35-6.24,124.33-5.86Zm2.26-.68c0-.4-.24-.4-.24-.8V-8.9a1.11,1.11,0,0,0-.22-.82c-.2-.2-.5-.14-.8-.14a1.058,1.058,0,0,0-.76.32,5.556,5.556,0,0,0-.96-.36,5.122,5.122,0,0,0-.92-.22,4.412,4.412,0,0,0-.74.08,4.17,4.17,0,0,0-.72.14c-.24.06-.42.28-.64.4-.2.1-.54.06-.72.2a3.85,3.85,0,0,0-.6.68,3.763,3.763,0,0,0-.54.72,4.036,4.036,0,0,0-.18.88,4.069,4.069,0,0,0-.04.86,3.57,3.57,0,0,0-.02.8,5.849,5.849,0,0,0,.34.72,4.992,4.992,0,0,0,.22.78c.14.22.5.28.68.46.2.2.26.56.48.7.24.16.58.1.82.22a5.557,5.557,0,0,0,.76.24,3.6,3.6,0,0,0,.8.06v.16c.28,0,.54-.2.82-.26a4.34,4.34,0,0,0,.84-.22c0,.26.06.58.04.78a2.08,2.08,0,0,1-.22.68c-.12.3-.3.36-.76.64a2.679,2.679,0,0,1-.54.34c-.2.06-.4-.06-.62-.06a1.9,1.9,0,0,1-.84-.06c-.28-.14-.62-.26-.76-.52-.16-.26-.26-.56-.54-.64-.28-.06-.52.14-.8.28a.894.894,0,0,0-.44.6c-.08.26-.24.56-.08.82.14.24.44.34.62.54a4.858,4.858,0,0,0,.6.52c.22.16.34.5.6.6.24.1.58-.04.84,0a3.8,3.8,0,0,0,.78.22c.02,0,.02.08.02.08a5.139,5.139,0,0,0,.8-.14,5.907,5.907,0,0,0,.74-.32,5.993,5.993,0,0,0,.72-.3,4.673,4.673,0,0,0,.68-.52c.22-.2.54-.3.7-.54a3.969,3.969,0,0,0,.28-.82,5.583,5.583,0,0,0,.28-.74c.04-.26-.06-.52-.04-.78,0-.26.22-.52.22-.78,0-.4-.18-.4-.18-.8,0-.38.14-.38.14-.78,0-.38-.08-.38-.08-.78v-.78C126.41-6.16,126.59-6.16,126.59-6.54Zm7.64,5.22a1.411,1.411,0,0,0-.32-.94,1.46,1.46,0,0,0-.94-.2,1.117,1.117,0,0,0-.84.3,1.287,1.287,0,0,0-.44.84,1.341,1.341,0,0,0,.4.9,1.256,1.256,0,0,0,.88.36,1.386,1.386,0,0,0,.9-.34A1.355,1.355,0,0,0,134.23-1.32Zm.18-9.98c0-.42-.06-.42-.04-.82,0-.4-.16-.4-.14-.8,0-.42.04-.42.06-.82a1.426,1.426,0,0,0-.18-.68,1.074,1.074,0,0,0-.5-.44c-.22-.12-.38-.34-.62-.34a2.045,2.045,0,0,0-.76.1,1.278,1.278,0,0,0-.46.6,1.256,1.256,0,0,0-.14.7c0,.42-.06.42-.04.82s.18.4.2.8c0,.4-.02.4-.02.82.02.4-.14.4-.14.8.02.42-.02.42,0,.82,0,.4.1.4.1.8.02.42.18.4.2.82,0,.4-.02.4-.02.8.02.42-.12.42-.1.82.02.42.1.4.12.82.02.4-.18.4-.18.82a1.267,1.267,0,0,0,.46.78,1.24,1.24,0,0,0,.78.5c.32,0,.54-.32.74-.54a1.024,1.024,0,0,0,.32-.76c.02-.4-.06-.4-.06-.8.02-.4.28-.4.28-.8.02-.4-.18-.4-.18-.8.02-.4.08-.4.1-.8,0-.42-.14-.42-.14-.82.02-.4.16-.4.16-.8.02-.4.14-.4.14-.8C134.37-10.9,134.39-10.9,134.41-11.3Z" transform="translate(139.41 15.2)" fill="#424242"/>
</svg>
